<?xml version="1.0" standalone="no"?>
<!DOCTYPE svg PUBLIC "-//W3C//DTD SVG 20010904//EN"
 "http://www.w3.org/TR/2001/REC-SVG-20010904/DTD/svg10.dtd">
<svg version="1.0" xmlns="http://www.w3.org/2000/svg"
 width="1280.000000pt" height="719.000000pt" viewBox="0 0 1280.000000 719.000000"
 preserveAspectRatio="xMidYMid meet">

<g transform="translate(0.000000,719.000000) scale(0.100000,-0.100000)"
fill="#000000" stroke="none">
<path d="M3030 6005 c-8 -3 -94 -9 -190 -15 -96 -6 -209 -15 -250 -20 -259
-30 -248 -29 -455 -59 -67 -10 -244 -43 -350 -66 -38 -8 -113 -24 -165 -35
-52 -11 -144 -33 -205 -48 l-110 -27 -22 -80 c-24 -89 -43 -179 -67 -305 -9
-47 -27 -142 -41 -212 -14 -70 -25 -141 -25 -158 0 -17 -4 -50 -9 -73 -8 -37
-18 -117 -51 -417 -6 -47 -17 -202 -26 -345 -18 -286 -15 -889 6 -1105 6 -63
17 -189 25 -280 26 -284 44 -412 100 -715 40 -215 131 -634 139 -642 6 -7 283
-60 401 -77 61 -9 139 -20 175 -26 36 -5 126 -16 200 -25 74 -9 169 -20 210
-25 285 -35 1173 -48 1495 -21 383 31 646 60 820 91 28 5 84 14 125 21 41 6
145 25 230 42 85 16 170 32 188 35 40 5 44 14 66 127 9 50 22 108 27 130 5 22
14 69 19 105 6 36 15 90 20 120 17 88 41 239 50 315 33 260 43 348 56 490 8
88 18 257 24 375 5 118 11 247 13 285 7 98 -11 805 -23 950 -33 400 -73 682
-140 1000 -5 22 -14 63 -19 90 -23 109 -63 282 -76 320 l-13 40 -108 28 c-60
16 -127 33 -149 38 -22 4 -71 15 -110 24 -38 8 -115 24 -170 35 -55 11 -122
24 -150 29 -100 20 -247 38 -545 67 -143 14 -882 29 -920 19z m745 -140 c138
-8 264 -17 280 -20 17 -3 71 -10 120 -15 189 -20 208 -23 695 -121 105 -21
201 -52 209 -68 16 -30 102 -437 130 -613 41 -258 49 -318 66 -493 8 -88 20
-207 26 -265 16 -164 23 -924 10 -1160 -23 -412 -60 -746 -126 -1155 -28 -172
-73 -407 -80 -413 -4 -5 -109 -28 -192 -43 -136 -24 -173 -30 -233 -39 -36 -5
-112 -17 -170 -25 -58 -9 -140 -21 -182 -26 -43 -5 -115 -14 -160 -19 -356
-44 -1029 -63 -1433 -41 -432 24 -1249 131 -1287 169 -12 12 -60 221 -107 467
-73 381 -87 488 -143 1075 -17 177 -17 928 -1 1150 15 194 37 413 57 560 8 58
18 130 21 160 4 30 17 111 30 180 13 69 25 136 28 150 24 133 71 348 79 357 6
7 27 17 47 23 35 10 367 80 481 101 30 6 73 14 95 19 69 13 236 39 355 54 223
29 306 36 670 60 137 8 497 4 715 -9z"/>
<path d="M3178 5634 c-30 -43 -194 -252 -207 -264 -15 -13 -135 -156 -208
-245 -215 -268 -347 -528 -375 -741 l-10 -81 -297 -6 c-188 -3 -324 -1 -372 6
-41 6 -83 8 -92 4 -15 -6 -15 -10 -2 -48 29 -80 58 -219 106 -499 12 -69 72
-304 109 -430 47 -156 176 -386 278 -494 56 -58 187 -158 277 -209 98 -57 189
-90 320 -118 169 -37 390 -14 533 54 17 8 38 5 100 -15 122 -41 163 -48 294
-48 195 0 358 45 523 144 79 47 229 171 283 234 108 125 199 304 260 512 53
182 63 231 122 575 16 94 41 212 54 264 14 51 24 97 21 101 -2 4 -30 3 -62 -1
-32 -4 -213 -9 -403 -11 l-345 -3 -11 85 c-28 203 -154 443 -379 720 -42 52
-93 113 -113 135 -122 132 -257 289 -302 350 -28 39 -55 71 -60 73 -5 2 -24
-18 -42 -44z m69 -208 c4 -8 26 -34 48 -58 163 -175 350 -398 447 -533 52 -73
153 -279 177 -362 12 -40 23 -96 24 -125 l2 -53 -80 -13 c-223 -35 -423 -104
-570 -195 l-40 -25 -55 32 c-69 41 -191 91 -291 121 -82 25 -278 63 -344 67
-37 3 -40 6 -43 34 -5 48 23 165 62 260 51 124 144 279 249 413 139 177 377
451 392 451 8 0 18 -6 22 -14z m1465 -1266 c-2 -8 -21 -118 -42 -245 -48 -284
-69 -376 -119 -531 -84 -257 -191 -417 -376 -561 -92 -71 -224 -135 -353 -169
-99 -26 -382 -15 -382 16 0 5 27 35 61 66 47 46 71 81 110 159 72 147 94 240
94 404 l0 133 73 62 c168 142 250 294 297 556 l20 115 115 6 c63 3 203 5 310
5 168 -1 195 -3 192 -16z m-2337 -9 c3 -5 10 -43 15 -83 13 -102 60 -252 106
-338 50 -94 151 -210 244 -282 l73 -56 2 -119 c3 -222 84 -421 223 -549 30
-28 52 -56 49 -61 -23 -37 -322 -44 -422 -9 -167 58 -317 145 -421 243 -73 69
-154 184 -208 296 -62 129 -138 371 -170 547 -8 47 -29 156 -46 243 -16 88
-28 163 -24 168 7 12 571 12 579 0z m1570 -43 c-19 -131 -54 -241 -103 -328
-35 -64 -157 -200 -179 -200 -6 0 -30 35 -53 78 -40 73 -132 207 -148 214 -4
2 -27 24 -51 50 l-42 47 73 40 c120 66 360 137 476 140 l34 1 -7 -42z m-1244
17 c167 -31 429 -127 429 -157 0 -6 -28 -43 -62 -83 -35 -39 -72 -83 -83 -96
-33 -39 -80 -120 -105 -181 -13 -32 -28 -58 -34 -58 -15 0 -89 60 -131 106
-57 62 -123 182 -151 271 -27 90 -46 191 -38 204 8 14 83 11 175 -6z m600
-287 c90 -85 171 -199 213 -300 20 -48 9 -60 -82 -88 -102 -32 -191 -41 -274
-30 -89 13 -168 37 -169 53 -5 46 46 153 111 237 55 71 141 160 155 160 6 0
27 -15 46 -32z m263 -504 c23 -60 -16 -258 -72 -370 -43 -85 -122 -170 -194
-208 -32 -17 -39 -18 -69 -6 -50 21 -160 136 -197 206 -40 78 -82 232 -82 307
0 67 1 67 100 37 47 -14 94 -20 172 -20 119 0 180 10 266 45 70 29 69 28 76 9z"/>
<path d="M3140 2308 c-1 -1 -2 -65 -3 -141 -2 -126 -1 -137 16 -137 17 0 18
10 15 137 -2 98 -7 138 -15 141 -7 2 -13 2 -13 0z"/>
<path d="M3295 2170 l0 -140 28 0 c25 0 27 2 17 20 -7 12 -10 69 -9 138 1 107
0 117 -17 120 -18 3 -19 -6 -19 -138z"/>
<path d="M3445 2300 c3 -5 12 -10 18 -10 23 0 66 -50 77 -89 14 -52 3 -95 -32
-133 -35 -37 -32 -43 8 -19 63 38 81 139 36 200 -26 36 -127 84 -107 51z"/>
<path d="M3672 2170 c3 -127 5 -140 21 -140 17 0 18 10 15 140 -3 128 -5 140
-21 140 -17 0 -18 -10 -15 -140z"/>
<path d="M3855 2300 c3 -5 8 -10 11 -10 2 0 4 5 4 10 0 6 -5 10 -11 10 -5 0
-7 -4 -4 -10z"/>
<path d="M3977 2295 c13 -23 235 -255 245 -255 4 0 8 6 8 14 0 19 -229 256
-247 256 -9 0 -11 -5 -6 -15z"/>
<path d="M4310 2294 c0 -8 5 -12 10 -9 6 3 10 10 10 16 0 5 -4 9 -10 9 -5 0
-10 -7 -10 -16z"/>
<path d="M4429 2306 c-10 -10 0 -271 10 -274 20 -7 23 27 16 153 -6 111 -11
135 -26 121z"/>
<path d="M2006 2291 c-4 -5 -2 -12 4 -16 6 -4 10 -57 10 -131 0 -105 2 -124
15 -124 13 0 15 20 13 137 -3 119 -5 138 -20 141 -9 2 -19 -1 -22 -7z"/>
<path d="M2148 2294 c-3 -3 1 -19 9 -35 18 -36 11 -71 -19 -99 l-22 -20 32 11
c37 13 52 35 52 77 0 28 -40 79 -52 66z"/>
<path d="M2279 2296 c-2 -3 -2 -42 2 -88 3 -46 4 -107 2 -135 -4 -49 -3 -53
17 -53 22 0 22 2 16 138 -4 104 -8 138 -18 140 -8 1 -16 1 -19 -2z"/>
<path d="M2390 2291 c0 -5 7 -15 16 -22 12 -9 15 -24 11 -51 -5 -39 0 -47 21
-26 16 16 15 60 0 80 -15 18 -48 31 -48 19z"/>
<path d="M2584 2263 c3 -21 5 -84 6 -140 0 -86 3 -103 15 -103 14 0 15 20 14
140 -2 131 -3 140 -21 140 -17 0 -19 -5 -14 -37z"/>
<path d="M2765 2290 c3 -5 8 -10 11 -10 2 0 4 5 4 10 0 6 -5 10 -11 10 -5 0
-7 -4 -4 -10z"/>
<path d="M2870 2238 c0 -29 24 -53 88 -88 27 -14 53 -38 61 -55 12 -24 16 -26
19 -12 8 41 -8 64 -67 96 -33 17 -69 43 -81 58 l-20 26 0 -25z"/>
<path d="M3832 2170 c0 -14 2 -19 5 -12 2 6 2 18 0 25 -3 6 -5 1 -5 -13z"/>
<path d="M2371 2158 c1 -29 75 -133 96 -136 20 -3 17 4 -22 63 -25 37 -45 71
-45 76 0 5 -7 9 -15 9 -8 0 -15 -6 -14 -12z"/>
<path d="M2745 2160 c3 -5 8 -10 11 -10 2 0 4 5 4 10 0 6 -5 10 -11 10 -5 0
-7 -4 -4 -10z"/>
<path d="M2860 2046 c0 -15 24 -28 34 -19 7 7 -13 33 -25 33 -5 0 -9 -6 -9
-14z"/>
<path d="M3875 2049 c-4 -6 -5 -13 -2 -16 7 -7 27 6 27 18 0 12 -17 12 -25 -2z"/>
<path d="M2795 2039 c-11 -17 1 -21 15 -4 8 9 8 15 2 15 -6 0 -14 -5 -17 -11z"/>
<path d="M3429 1886 c-2 -2 -3 -56 -1 -120 3 -93 6 -116 18 -116 16 0 18 57 7
173 -5 60 -11 75 -24 63z"/>
<path d="M3790 1881 c0 -5 5 -13 10 -16 6 -3 10 -2 10 4 0 5 -4 13 -10 16 -5
3 -10 2 -10 -4z"/>
<path d="M3935 1775 c0 -63 3 -115 8 -115 4 0 10 0 13 0 3 0 7 52 8 115 1 96
-1 115 -14 115 -12 0 -15 -19 -15 -115z"/>
<path d="M4360 1883 c0 -5 21 -35 46 -68 41 -55 45 -64 42 -108 -2 -39 0 -47
15 -47 14 0 17 9 17 48 0 41 -6 56 -45 107 -25 33 -45 63 -45 68 0 4 -7 7 -15
7 -8 0 -15 -3 -15 -7z"/>
<path d="M4550 1879 c0 -5 5 -7 10 -4 6 3 10 8 10 11 0 2 -4 4 -10 4 -5 0 -10
-5 -10 -11z"/>
<path d="M2008 1873 c-2 -5 -2 -52 0 -105 3 -89 5 -98 27 -112 l24 -16 -15 28
c-9 17 -14 58 -14 114 0 48 -4 89 -9 93 -5 3 -11 2 -13 -2z"/>
<path d="M2180 1870 c0 -5 5 -10 10 -10 6 0 10 5 10 10 0 6 -4 10 -10 10 -5 0
-10 -4 -10 -10z"/>
<path d="M2312 1862 c21 -30 210 -207 217 -204 3 1 6 5 6 10 0 12 -212 212
-225 212 -8 0 -7 -5 2 -18z"/>
<path d="M2665 1765 c0 -96 3 -115 15 -115 12 0 15 19 15 115 0 96 -3 115 -15
115 -12 0 -15 -19 -15 -115z"/>
<path d="M2863 1770 c47 -101 67 -130 67 -97 0 6 -18 49 -40 95 -22 45 -40 89
-40 97 0 8 -9 15 -19 15 -17 0 -13 -13 32 -110z"/>
<path d="M3135 1853 c2 -16 4 -67 4 -115 1 -101 18 -119 23 -25 5 102 -1 167
-17 167 -9 0 -12 -9 -10 -27z"/>
<path d="M3290 1870 c0 -5 5 -10 10 -10 6 0 10 5 10 10 0 6 -4 10 -10 10 -5 0
-10 -4 -10 -10z"/>
<path d="M3528 1868 c7 -7 12 -27 12 -46 0 -41 23 -39 28 2 4 31 -13 56 -36
56 -12 0 -13 -3 -4 -12z"/>
<path d="M4158 1770 c-3 -110 -3 -110 21 -110 19 0 21 3 11 14 -6 8 -10 32 -9
53 5 71 -1 153 -10 153 -6 0 -11 -50 -13 -110z"/>
<path d="M3680 1834 c0 -24 21 -45 70 -69 19 -9 45 -29 57 -43 21 -25 23 -25
23 -6 0 30 -19 50 -73 74 -26 13 -54 32 -62 43 l-15 21 0 -20z"/>
<path d="M3507 1773 c-7 -6 35 -87 58 -112 7 -7 18 -10 24 -7 7 5 5 14 -8 27
-10 11 -27 37 -37 59 -19 40 -25 45 -37 33z"/>
<path d="M3680 1671 c0 -12 6 -21 15 -21 8 0 15 4 15 9 0 5 -7 14 -15 21 -13
10 -15 9 -15 -9z"/>
<path d="M3310 1659 c0 -5 5 -7 10 -4 6 3 10 8 10 11 0 2 -4 4 -10 4 -5 0 -10
-5 -10 -11z"/>
<path d="M7760 5890 c-182 -39 -333 -213 -354 -412 -3 -29 -11 -757 -17 -1618
-10 -1420 -10 -1572 5 -1628 41 -160 142 -275 291 -332 79 -29 50 -29 1712
-40 1508 -10 1440 -12 1553 42 66 32 161 131 198 208 43 88 52 145 52 331 0
156 0 159 -22 163 -277 57 -454 150 -638 335 -177 178 -290 393 -347 654 -24
115 -24 378 1 501 47 231 158 455 312 625 79 87 211 187 342 259 71 39 304
111 365 112 13 0 8 381 -7 435 -24 91 -67 163 -132 225 -72 67 -144 104 -229
118 -36 6 -422 13 -955 16 -492 3 -1163 8 -1490 11 -352 2 -613 0 -640 -5z"/>
<path d="M11104 4061 c-77 -35 -134 -126 -134 -216 0 -126 104 -235 225 -235
132 0 240 132 220 268 -23 156 -175 245 -311 183z"/>
<path d="M7490 1388 c-24 -13 -58 -40 -74 -61 l-31 -39 0 -133 0 -133 31 -39
c47 -58 88 -78 159 -77 35 0 73 8 92 17 41 22 79 73 85 115 l5 33 -41 -3 c-36
-3 -41 -6 -48 -35 -11 -42 -42 -63 -93 -63 -83 0 -115 52 -115 185 0 133 32
185 115 185 51 0 82 -21 93 -63 7 -28 13 -32 45 -35 36 -3 37 -3 37 32 0 50
-55 110 -115 125 -64 16 -95 14 -145 -11z"/>
<path d="M7943 1394 c-50 -18 -98 -69 -112 -121 -14 -50 -14 -186 0 -234 30
-97 130 -154 232 -130 63 14 110 51 136 106 30 64 30 220 0 281 -24 50 -69 88
-124 103 -51 14 -80 13 -132 -5z m153 -85 c35 -33 47 -83 43 -183 -4 -87 -4
-88 -41 -122 -52 -47 -103 -48 -155 0 -36 33 -37 35 -41 123 -5 107 7 152 51
189 26 22 38 25 75 21 26 -3 53 -14 68 -28z"/>
<path d="M10483 1402 l-33 -3 0 -245 0 -244 40 0 40 0 0 176 c0 107 4 173 9
169 6 -3 56 -82 113 -176 l102 -170 41 3 40 3 3 243 2 242 -45 0 -45 0 -2
-172 -3 -172 -105 172 c-58 94 -109 173 -115 175 -5 1 -25 1 -42 -1z"/>
<path d="M11065 1398 c-50 -18 -84 -48 -108 -91 -19 -36 -22 -57 -22 -152 0
-99 3 -114 25 -153 38 -67 97 -97 185 -96 72 1 118 17 156 55 16 16 19 33 19
109 l0 90 -90 0 -90 0 0 -30 c0 -29 2 -30 45 -30 l45 0 0 -55 c0 -65 -12 -75
-91 -75 -46 0 -55 4 -84 34 -38 41 -51 110 -40 209 6 52 13 67 41 95 32 32 38
34 86 30 55 -6 88 -32 88 -69 0 -15 7 -19 40 -19 35 0 40 3 40 24 0 32 -38 86
-77 109 -39 22 -127 31 -168 15z"/>
<path d="M8320 1155 l0 -245 41 0 42 0 -5 193 c-3 113 -2 184 3 172 5 -11 38
-96 72 -190 59 -156 66 -170 90 -173 32 -4 33 -1 104 187 30 80 59 153 64 161
6 9 9 -52 8 -165 l-2 -180 41 -3 42 -3 0 246 0 246 -57 -3 -56 -3 -66 -177
c-36 -97 -69 -179 -72 -182 -3 -4 -37 77 -74 179 l-69 185 -53 0 -53 0 0 -245z"/>
<path d="M8920 1155 l0 -245 40 0 39 0 3 93 3 92 90 5 c99 6 141 22 171 67 26
40 24 130 -4 170 -37 52 -75 63 -216 63 l-126 0 0 -245z m258 162 c27 -24 33
-65 17 -105 -18 -41 -51 -54 -129 -50 l-61 3 -3 74 c-2 41 0 81 3 89 8 22 146
13 173 -11z"/>
<path d="M9362 1203 c3 -186 4 -200 25 -229 67 -93 265 -91 329 3 17 25 19 51
22 226 l4 197 -41 0 -41 0 0 -186 0 -186 -29 -29 c-40 -39 -115 -42 -158 -5
l-28 24 -3 191 -3 191 -40 0 -41 0 4 -197z"/>
<path d="M9800 1370 l0 -30 75 0 75 0 0 -215 0 -215 40 0 40 0 2 213 3 212 73
3 72 3 0 29 0 30 -190 0 -190 0 0 -30z"/>
<path d="M10260 1155 l0 -245 40 0 40 0 0 245 0 245 -40 0 -40 0 0 -245z"/>
</g>
</svg>
